<svg width="96" height="96" viewBox="0 0 96 96" fill="none" xmlns="http://www.w3.org/2000/svg">
  <rect width="96" height="96" rx="16" fill="#F8FAFC"/>
  <rect x="16" y="24" width="64" height="36" rx="10" fill="#E2E8F0"/>
  <path d="M26 58C28.7614 58 31 55.7614 31 53C31 50.2386 28.7614 48 26 48C23.2386 48 21 50.2386 21 53C21 55.7614 23.2386 58 26 58Z" fill="#94A3B8"/>
  <path d="M70 58C72.7614 58 75 55.7614 75 53C75 50.2386 72.7614 48 70 48C67.2386 48 65 50.2386 65 53C65 55.7614 67.2386 58 70 58Z" fill="#94A3B8"/>
  <path d="M34 53H62" stroke="#94A3B8" stroke-width="4" stroke-linecap="round"/>
  <path d="M40 44H56" stroke="#CBD5F5" stroke-width="4" stroke-linecap="round"/>
</svg>
